<svg width="1440" height="900" viewBox="0 0 1440 900" fill="none" xmlns="http://www.w3.org/2000/svg">
<path d="M294.466 282.803L282.226 270.563L294.036 258.743L283.166 247.863L271.346 259.683L259.106 247.443L248.226 258.323L260.466 270.563L247.806 283.223L258.686 294.103L271.346 281.443L283.586 293.673L294.466 282.803Z" fill="#307DFF"/>
<path d="M167.521 514.924L153.378 529.066L199.34 575.028L213.482 560.886L167.521 514.924Z" fill="#BBD8F9"/>
<path d="M723.036 86.1861L718.99 105.773L782.647 118.921L786.692 99.334L723.036 86.1861Z" fill="#307DFF"/>
<path d="M372.477 752.496L355.72 815.299L375.044 820.455L391.801 757.653L372.477 752.496Z" fill="#F9DF8C"/>
<path d="M1243.66 503.922L1191.82 543.13L1203.88 559.082L1255.72 519.874L1243.66 503.922Z" fill="#307DFF"/>
<path d="M121.903 233.58L65.6455 266.139L75.6636 283.449L131.921 250.89L121.903 233.58Z" fill="#BBD8F9"/>
<path d="M1266.44 752.487L1249.68 815.29L1269 820.446L1285.76 757.643L1266.44 752.487Z" fill="#BBD8F9"/>
<path d="M447.911 613.555L391.654 646.114L401.672 663.424L457.929 630.865L447.911 613.555Z" fill="#BBD8F9"/>
<path d="M50.9348 820.563L-5.32275 853.122L4.69538 870.432L60.953 837.873L50.9348 820.563Z" fill="#DB7DBF"/>
<path d="M309.31 61.8084L298.503 125.904L318.225 129.229L329.031 65.1334L309.31 61.8084Z" fill="#DB7DBF"/>
<path d="M1196.89 663.823L1180.28 658.953L1184.98 642.913L1170.22 638.583L1165.52 654.623L1148.91 649.753L1144.58 664.513L1161.19 669.383L1156.15 686.563L1170.91 690.893L1175.95 673.713L1192.56 678.583L1196.89 663.823Z" fill="#C9DA8F"/>
<path d="M994.936 192.783L978.796 199.023L972.766 183.433L958.416 188.983L964.446 204.573L948.296 210.813L953.846 225.163L969.986 218.923L976.446 235.623L990.796 230.073L984.336 213.373L1000.49 207.133L994.936 192.783Z" fill="#BBD8F9"/>
<path d="M1248.87 111.883L1231.56 112.133L1231.32 95.4232L1215.94 95.6432L1216.18 112.353L1198.88 112.603L1199.1 127.983L1216.4 127.733L1216.66 145.633L1232.04 145.413L1231.79 127.513L1249.09 127.263L1248.87 111.883Z" fill="#C9DA8F"/>
<path d="M205.866 744.873L195.056 731.363L208.106 720.923L198.496 708.903L185.446 719.343L174.636 705.833L162.626 715.443L173.436 728.953L159.456 740.143L169.066 752.153L183.046 740.973L193.856 754.483L205.866 744.873Z" fill="#C3B2E7"/>
<path d="M627.776 842.203L623.656 825.393L639.886 821.413L636.216 806.473L619.986 810.453L615.866 793.643L600.926 797.313L605.046 814.123L587.656 818.383L591.326 833.333L608.716 829.063L612.836 845.873L627.776 842.203Z" fill="#307DFF"/>
<path d="M1428.82 554.623L1440.61 541.943L1452.84 553.333L1463.32 542.063L1451.08 530.683L1462.87 518.013L1451.61 507.533L1439.82 520.203L1426.71 508.013L1416.23 519.273L1429.34 531.473L1417.55 544.143L1428.82 554.623Z" fill="#C3B2E7"/>
<path d="M145.426 420.983C151.225 420.983 155.926 416.282 155.926 410.483C155.926 404.684 151.225 399.983 145.426 399.983C139.627 399.983 134.926 404.684 134.926 410.483C134.926 416.282 139.627 420.983 145.426 420.983Z" fill="#C3B2E7"/>
<path d="M554.426 209.983C560.225 209.983 564.926 205.282 564.926 199.483C564.926 193.684 560.225 188.983 554.426 188.983C548.627 188.983 543.926 193.684 543.926 199.483C543.926 205.282 548.627 209.983 554.426 209.983Z" fill="#F9DF8C"/>
<path d="M1234.43 344.983C1240.22 344.983 1244.93 340.282 1244.93 334.483C1244.93 328.684 1240.22 323.983 1234.43 323.983C1228.63 323.983 1223.93 328.684 1223.93 334.483C1223.93 340.282 1228.63 344.983 1234.43 344.983Z" fill="#307DFF"/>
<path d="M856.835 741.433C862.634 741.433 867.335 736.732 867.335 730.933C867.335 725.134 862.634 720.433 856.835 720.433C851.036 720.433 846.335 725.134 846.335 730.933C846.335 736.732 851.036 741.433 856.835 741.433Z" fill="#307DFF"/>
<path d="M1051.43 826.983C1057.22 826.983 1061.93 822.282 1061.93 816.483C1061.93 810.684 1057.22 805.983 1051.43 805.983C1045.63 805.983 1040.93 810.684 1040.93 816.483C1040.93 822.282 1045.63 826.983 1051.43 826.983Z" fill="#C3B2E7"/>
<path d="M1357.43 193.983C1363.22 193.983 1367.93 189.282 1367.93 183.483C1367.93 177.684 1363.22 172.983 1357.43 172.983C1351.63 172.983 1346.93 177.684 1346.93 183.483C1346.93 189.282 1351.63 193.983 1357.43 193.983Z" fill="#307DFF"/>
<path d="M1395.43 711.983C1401.22 711.983 1405.93 707.282 1405.93 701.483C1405.93 695.684 1401.22 690.983 1395.43 690.983C1389.63 690.983 1384.93 695.684 1384.93 701.483C1384.93 707.282 1389.63 711.983 1395.43 711.983Z" fill="#DB7DBF"/>
<path d="M1365.34 316.248L1362.02 335.97L1426.11 346.776L1429.44 327.055L1365.34 316.248Z" fill="#BBD8F9"/>
<path d="M1311.87 -9.52605L1297.72 4.61609L1343.69 50.578L1357.83 36.4359L1311.87 -9.52605Z" fill="#DB7DBF"/>
<path d="M552.186 -21.9999L517.847 33.1892L534.828 43.755L569.167 -11.4341L552.186 -21.9999Z" fill="#BBD8F9"/>
<path d="M945.837 -17.0681L927.238 -9.71533L951.134 50.7327L969.734 43.3799L945.837 -17.0681Z" fill="#F9DF8C"/>
<path d="M1382.69 824.423L1367.2 837.072L1408.31 887.421L1423.8 874.773L1382.69 824.423Z" fill="#307DFF"/>
<path d="M855.217 853.643L838.459 916.445L857.783 921.602L874.541 858.799L855.217 853.643Z" fill="#BBD8F9"/>
<path d="M-9.28617 525.159L-23 539.717L24.313 584.287L38.0268 569.729L-9.28617 525.159Z" fill="#C3B2E7"/>
<path d="M1034.76 449.514L1031.43 469.235L1095.53 480.042L1098.85 460.32L1034.76 449.514Z" fill="#BBD8F9"/>
</svg>
