<svg width="206" height="36" viewBox="0 0 206 36" fill="none" xmlns="http://www.w3.org/2000/svg">
<g clip-path="url(#clip0_79_19920)">
<path d="M28.2244 19.0686L36.2375 0.692139H36.4363L44.4495 19.0686H40.3971L35.2741 6.13816L37.8279 4.41156L31.711 19.0686H28.2244ZM33.7067 12.6795H39.059L40.29 15.6078H32.6439L33.7067 12.6795Z" fill="white"/>
<path d="M47.6379 19.0685V0.661621L57.5397 14.5961L56.0105 14.2538L65.897 0.661621H65.9505V19.0685H62.4409V8.51119L62.6627 10.3138L56.6451 18.8252H56.5992L50.4135 10.3215L51.0175 8.66331V19.0685H47.6379Z" fill="white"/>
<path d="M76.357 1.38435C77.9098 1.30507 79.4504 1.69483 80.7765 2.50246C81.3138 2.87185 81.7469 3.37199 82.0347 3.95519C82.3225 4.53839 82.4553 5.18521 82.4204 5.83396C82.4532 6.8049 82.1688 7.76027 81.6099 8.55697C81.0511 9.30321 80.2859 9.87144 79.4078 10.1923C78.393 10.5669 77.3169 10.75 76.2347 10.7323L75.6765 8.86121C77.0039 8.83791 78.3254 9.04115 79.5837 9.4621C80.6137 9.7931 81.5407 10.3825 82.2752 11.1735C82.9249 11.9082 83.2765 12.8572 83.2615 13.8356C83.2902 14.677 83.1117 15.5126 82.7416 16.2696C82.4167 16.9142 81.9359 17.4683 81.3423 17.8821C80.7405 18.2982 80.0665 18.5999 79.3543 18.7721C78.6037 18.9557 77.8334 19.0477 77.0605 19.0459H71.1423V1.38435H76.357ZM76.7699 8.61782C77.0562 8.6413 77.344 8.59703 77.6098 8.48863C77.8756 8.38022 78.1118 8.21076 78.2991 7.99411C78.6202 7.59164 78.7953 7.09316 78.7961 6.57936C78.8129 6.31713 78.7652 6.05478 78.6574 5.81494C78.5495 5.57509 78.3845 5.36496 78.1768 5.20265C77.6912 4.87502 77.1111 4.71472 76.5252 4.74628H74.6443V8.61782H76.7699ZM76.8846 15.8285C77.3616 15.8347 77.8365 15.7654 78.2915 15.6231C78.6775 15.5057 79.0204 15.2782 79.2779 14.969C79.5283 14.654 79.6559 14.2596 79.6372 13.8585C79.653 13.6442 79.6231 13.4291 79.5493 13.2272C79.4755 13.0253 79.3595 12.8412 79.209 12.6871C78.8888 12.4101 78.5013 12.2213 78.0851 12.1395C77.6136 12.0317 77.1313 11.9781 76.6476 11.9797H74.6443V15.8285H76.8846Z" fill="white"/>
<path d="M85.3643 19.0686L93.3851 0.692139H93.5762L101.597 19.0686H97.537L92.414 6.13816L94.9525 4.40395L88.8356 19.061L85.3643 19.0686ZM90.8466 12.6795H96.1989L97.4299 15.6078H89.7837L90.8466 12.6795Z" fill="white"/>
<path d="M114.29 5.65901C113.628 5.29881 112.937 4.99353 112.225 4.74627C111.594 4.52159 110.93 4.40084 110.26 4.38878C109.631 4.35383 109.006 4.51323 108.471 4.84515C108.254 4.99928 108.079 5.20576 107.964 5.44524C107.849 5.68471 107.797 5.94933 107.813 6.21426C107.814 6.42469 107.858 6.63271 107.944 6.82516C108.029 7.01762 108.154 7.19032 108.31 7.33236C108.685 7.6946 109.12 7.99043 109.595 8.20707C110.124 8.47089 110.668 8.70452 111.223 8.90684C111.748 9.10173 112.258 9.3304 112.753 9.5914C113.254 9.8515 113.715 10.1819 114.121 10.5726C114.528 10.9946 114.846 11.4939 115.054 12.0406C115.317 12.7272 115.442 13.4586 115.421 14.1931C115.424 15.0736 115.181 15.9375 114.718 16.688C114.22 17.4844 113.511 18.1291 112.669 18.5515C111.631 19.0523 110.487 19.2951 109.335 19.2588C108.642 19.2576 107.95 19.1888 107.27 19.0535C105.826 18.7754 104.456 18.2003 103.249 17.3649L104.778 14.6495C105.206 14.958 105.662 15.2278 106.139 15.4558C106.63 15.6837 107.142 15.8646 107.668 15.9958C108.117 16.1173 108.579 16.1812 109.044 16.1859C109.471 16.1845 109.896 16.123 110.306 16.0034C110.71 15.9032 111.079 15.6924 111.369 15.3949C111.516 15.2326 111.63 15.0429 111.704 14.8366C111.777 14.6303 111.809 14.4116 111.797 14.1931C111.796 13.8403 111.672 13.4988 111.445 13.2271C111.173 12.9271 110.856 12.6706 110.505 12.4665C110.093 12.221 109.661 12.0122 109.213 11.8428C108.662 11.6375 108.096 11.3941 107.523 11.1202C106.937 10.8422 106.385 10.4976 105.879 10.0934C105.37 9.69822 104.95 9.20057 104.648 8.63302C104.318 7.96413 104.158 7.2251 104.181 6.48047C104.157 5.5443 104.396 4.61995 104.87 3.81071C105.338 3.04753 106.01 2.42873 106.812 2.02326C107.708 1.55548 108.698 1.29545 109.71 1.26264C110.892 1.22423 112.073 1.39418 113.196 1.76465C114.041 2.0758 114.849 2.47883 115.605 2.96642L114.29 5.65901Z" fill="white"/>
<path d="M128.955 5.65905C128.293 5.29885 127.603 4.99357 126.891 4.74631C126.26 4.52083 125.596 4.40006 124.925 4.38882C124.296 4.35387 123.671 4.51327 123.136 4.84519C122.92 4.99968 122.747 5.20646 122.633 5.446C122.519 5.68554 122.469 5.94996 122.486 6.2143C122.487 6.42473 122.531 6.63274 122.617 6.8252C122.703 7.01766 122.827 7.19036 122.983 7.3324C123.348 7.68961 123.769 7.98507 124.23 8.20711C124.759 8.46955 125.303 8.70315 125.858 8.90688C126.383 9.10061 126.894 9.32932 127.388 9.59144C127.911 9.84589 128.392 10.1766 128.817 10.5726C129.238 10.9914 129.568 11.4909 129.788 12.0406C130.045 12.7288 130.167 13.4594 130.148 14.1932C130.155 15.0741 129.911 15.939 129.444 16.688C128.948 17.486 128.239 18.1311 127.395 18.5515C126.358 19.0533 125.214 19.2961 124.061 19.2589C123.368 19.2571 122.677 19.1883 121.997 19.0535C121.288 18.9201 120.596 18.711 119.933 18.4298C119.243 18.147 118.587 17.7899 117.975 17.3649L119.504 14.6495C120.364 15.2689 121.331 15.7253 122.356 15.9958C122.805 16.1174 123.268 16.1813 123.733 16.186C124.162 16.1846 124.59 16.1231 125.002 16.0034C125.405 15.9003 125.773 15.69 126.065 15.3949C126.211 15.2323 126.324 15.0423 126.396 14.836C126.468 14.6297 126.499 14.4112 126.485 14.1932C126.484 13.8403 126.36 13.4989 126.134 13.2272C125.865 12.9236 125.547 12.6666 125.193 12.4666C124.782 12.221 124.349 12.0123 123.901 11.8429C123.358 11.6375 122.792 11.3941 122.211 11.1203C121.631 10.8532 121.084 10.5187 120.582 10.1239C120.071 9.73071 119.651 9.23261 119.351 8.66348C119.019 7.99526 118.856 7.2562 118.877 6.51094C118.853 5.57476 119.092 4.65042 119.565 3.84117C120.036 3.07976 120.708 2.46148 121.508 2.05372C122.404 1.58692 123.394 1.32695 124.406 1.2931C125.591 1.25491 126.774 1.42485 127.9 1.79511C128.742 2.10614 129.548 2.5092 130.301 2.99689L128.955 5.65905Z" fill="white"/>
<path d="M132.144 19.0686L140.164 0.692139H140.356L148.376 19.0686H144.316L139.201 6.13816L141.732 4.40395L135.615 19.061L132.144 19.0686ZM137.626 12.6795H142.978L144.209 15.6078H136.563L137.626 12.6795Z" fill="white"/>
<path d="M151.565 19.0688V1.38441H156.879C158.444 1.3316 160.003 1.5902 161.466 2.14503C162.636 2.60706 163.682 3.33057 164.525 4.25954C165.278 5.1247 165.85 6.1306 166.207 7.21834C166.556 8.28179 166.734 9.39324 166.735 10.5118C166.754 11.7302 166.511 12.9385 166.024 14.0563C165.569 15.0747 164.908 15.9888 164.081 16.7413C163.251 17.4902 162.283 18.0714 161.229 18.4527C160.131 18.845 158.971 19.0432 157.804 19.0383L151.565 19.0688ZM155.067 15.7068H157.146C157.963 15.718 158.776 15.5999 159.555 15.3569C160.243 15.149 160.881 14.802 161.428 14.3377C161.962 13.8773 162.377 13.2954 162.636 12.6415C162.93 11.8958 163.073 11.0997 163.057 10.2988C163.098 9.32674 162.904 8.35906 162.491 7.47695C162.167 6.80889 161.687 6.22739 161.092 5.78078C160.583 5.40551 160.011 5.12465 159.402 4.95171C158.924 4.81443 158.431 4.73777 157.934 4.72352H155.082L155.067 15.7068Z" fill="white"/>
<path d="M169.701 10.2532C169.697 9.06397 169.936 7.88633 170.405 6.79236C170.866 5.71481 171.524 4.73208 172.347 3.89441C173.171 3.05724 174.15 2.38581 175.23 1.9168C176.34 1.44003 177.537 1.19409 178.747 1.19409C179.956 1.19409 181.153 1.44003 182.264 1.9168C183.348 2.38994 184.334 3.06068 185.17 3.89441C186.009 4.72651 186.681 5.71003 187.15 6.79236C187.627 7.88425 187.872 9.06258 187.869 10.2532C187.875 11.4588 187.63 12.6527 187.15 13.7596C186.686 14.8357 186.013 15.8102 185.17 16.6271C184.334 17.4518 183.348 18.1101 182.264 18.5667C180.011 19.4897 177.483 19.4897 175.23 18.5667C174.151 18.1134 173.171 17.4545 172.347 16.6271C171.52 15.8046 170.861 14.8309 170.405 13.7596C169.933 12.6505 169.694 11.4574 169.701 10.2532ZM173.326 10.2532C173.319 11.0063 173.462 11.7534 173.746 12.4513C174.025 13.1203 174.427 13.7316 174.931 14.254C175.434 14.7696 176.034 15.1807 176.698 15.4634C177.385 15.758 178.128 15.9057 178.877 15.8969C179.606 15.9033 180.328 15.7555 180.995 15.4634C181.639 15.1776 182.218 14.7664 182.7 14.254C183.196 13.7285 183.593 13.1177 183.87 12.4513C184.43 11.0258 184.43 9.44246 183.87 8.01695C183.584 7.35058 183.174 6.74407 182.662 6.2295C182.176 5.71007 181.587 5.29579 180.934 5.01251C180.254 4.72633 179.523 4.57887 178.785 4.57887C178.047 4.57887 177.316 4.72633 176.636 5.01251C175.979 5.29791 175.386 5.71176 174.893 6.2295C174.392 6.75136 174 7.36657 173.739 8.03977C173.462 8.7452 173.322 9.49611 173.326 10.2532Z" fill="white"/>
<path d="M197.358 1.38428C198.363 1.36991 199.364 1.51366 200.324 1.81023C201.13 2.0507 201.875 2.45763 202.511 3.0044C203.097 3.52152 203.557 4.16383 203.857 4.88312C204.169 5.66717 204.325 6.50421 204.316 7.34752C204.311 8.07956 204.2 8.80711 203.987 9.50767C203.767 10.2278 203.406 10.8974 202.924 11.4777C202.396 12.0965 201.731 12.5859 200.982 12.9076C200.031 13.2933 199.011 13.4772 197.985 13.4477H195.469V19.0686H191.967V1.38428H197.358ZM197.962 10.0857C198.417 10.0998 198.87 10.0087 199.284 9.81952C199.614 9.66617 199.901 9.43353 200.118 9.14257C200.317 8.889 200.465 8.5998 200.554 8.29068C200.641 8.02273 200.687 7.74326 200.691 7.46161C200.686 7.20611 200.658 6.9516 200.607 6.70099C200.539 6.38514 200.42 6.08216 200.255 5.80347C200.058 5.48321 199.778 5.22078 199.445 5.04285C198.995 4.80905 198.491 4.69877 197.985 4.72339H195.469V10.0477L197.962 10.0857ZM201.242 12.2459L205.638 19.0914H201.555L197.067 12.3143L201.242 12.2459Z" fill="white"/>
<path d="M0.361816 19.274H6.91458C6.97079 16.385 7.91972 13.5833 9.63243 11.2495C11.3451 8.91566 13.7386 7.16294 16.4876 6.22945L14.469 0C10.3976 1.359 6.85212 3.94458 4.32434 7.39819C1.79655 10.8518 0.411696 15.0023 0.361816 19.274Z" fill="#307DFF"/>
<path d="M15.2413 15.3112C16.0869 14.149 17.2685 13.2708 18.6285 12.7935L16.6099 6.58691C13.9393 7.49934 11.6155 9.20682 9.95359 11.4777C8.2917 13.7487 7.37221 16.4731 7.31982 19.2816H13.8726C13.915 17.851 14.3922 16.4667 15.2413 15.3112Z" fill="#C3B2E7"/>
<path d="M15.57 15.547C14.7697 16.6357 14.3216 17.941 14.2854 19.2893H20.7464L18.7584 13.2043C17.4814 13.6456 16.3695 14.4627 15.57 15.547Z" fill="#BBD8F9"/>
<path d="M132.006 25.5795V33.5128H130.637V25.5795H132.006ZM131.471 33.5128V32.2578H133.176C133.55 32.2602 133.922 32.2011 134.277 32.0828C134.599 31.9738 134.896 31.8003 135.148 31.5732C135.39 31.3305 135.577 31.0403 135.699 30.7213C135.844 30.3453 135.914 29.9449 135.905 29.5424C135.913 29.1399 135.843 28.7397 135.699 28.3634C135.568 28.044 135.37 27.7561 135.118 27.5191C134.867 27.2894 134.57 27.1157 134.246 27.0095C133.891 26.8912 133.519 26.8321 133.145 26.8346H131.44V25.5795H133.183C133.928 25.5607 134.664 25.7309 135.324 26.0739C135.927 26.3878 136.428 26.8652 136.769 27.4507C137.105 28.0974 137.28 28.8146 137.28 29.5424C137.28 30.2701 137.105 30.9873 136.769 31.634C136.429 32.2218 135.928 32.7017 135.324 33.0184C134.663 33.3577 133.927 33.5277 133.183 33.5128H131.471Z" fill="white"/>
<path d="M139.392 33.2846C138.992 33.0651 138.666 32.7347 138.451 32.3339C138.226 31.891 138.113 31.4001 138.123 30.9039C138.113 30.4043 138.228 29.9101 138.459 29.4663C138.676 29.0639 139.009 28.7354 139.415 28.5232C139.861 28.3106 140.35 28.2002 140.845 28.2002C141.34 28.2002 141.828 28.3106 142.275 28.5232C142.655 28.7346 142.966 29.0518 143.169 29.4359C143.389 29.883 143.496 30.3762 143.483 30.8735C143.483 30.9343 143.483 30.9952 143.483 31.0636C143.485 31.1118 143.485 31.16 143.483 31.2081H138.895V30.3715H142.45L142.068 30.8963C142.1 30.8358 142.126 30.772 142.145 30.7061C142.17 30.6433 142.183 30.5761 142.183 30.5084C142.196 30.2453 142.141 29.9832 142.022 29.7478C141.915 29.5501 141.757 29.3846 141.563 29.2686C141.356 29.1519 141.121 29.094 140.883 29.1012C140.614 29.0995 140.35 29.1705 140.118 29.3066C139.891 29.4431 139.715 29.6484 139.614 29.8923C139.497 30.1958 139.437 30.5181 139.438 30.8431C139.427 31.1706 139.484 31.4969 139.606 31.8014C139.707 32.0473 139.884 32.255 140.111 32.3947C140.359 32.5381 140.642 32.6093 140.929 32.6001C141.235 32.6072 141.537 32.5365 141.808 32.3947C142.071 32.2479 142.287 32.0321 142.435 31.771L143.49 32.2046C143.243 32.647 142.878 33.0129 142.435 33.2618C141.949 33.5044 141.411 33.6245 140.868 33.6117C140.355 33.6383 139.845 33.5252 139.392 33.2846Z" fill="white"/>
<path d="M146.901 28.2873V29.3674H143.926V28.2873H146.901ZM146.021 26.4771V33.5052H144.798V26.4847L146.021 26.4771Z" fill="white"/>
<path d="M148.613 33.2847C148.214 33.0651 147.887 32.7348 147.673 32.3339C147.444 31.8923 147.331 31.4005 147.344 30.904C147.33 30.404 147.446 29.9089 147.681 29.4664C147.895 29.0651 148.225 28.7367 148.629 28.5232C149.074 28.2901 149.571 28.1749 150.074 28.1886C150.564 28.1713 151.051 28.2787 151.488 28.5004C151.873 28.7074 152.185 29.0257 152.383 29.4131C152.602 29.8602 152.71 30.3534 152.696 30.8507C152.7 30.914 152.7 30.9775 152.696 31.0409C152.703 31.0888 152.703 31.1374 152.696 31.1854H148.109V30.3487H151.664L151.29 30.8735C151.318 30.8115 151.344 30.7481 151.366 30.6834C151.388 30.6194 151.4 30.5529 151.404 30.4856C151.415 30.2219 151.357 29.9597 151.236 29.725C151.134 29.5262 150.978 29.3602 150.785 29.2458C150.577 29.1302 150.342 29.0724 150.104 29.0785C149.835 29.0748 149.57 29.1459 149.34 29.2838C149.113 29.4203 148.936 29.6256 148.835 29.8695C148.712 30.1714 148.65 30.4945 148.652 30.8203C148.645 31.1476 148.702 31.4731 148.82 31.7787C148.921 32.0268 149.101 32.2352 149.332 32.3719C149.578 32.514 149.859 32.5851 150.143 32.5773C150.449 32.5845 150.751 32.5138 151.022 32.3719C151.286 32.2274 151.504 32.0111 151.649 31.7482L152.712 32.1818C152.464 32.6262 152.096 32.9925 151.649 33.239C151.175 33.4759 150.65 33.5959 150.12 33.5889C149.599 33.6294 149.077 33.524 148.613 33.2847Z" fill="white"/>
<path d="M154.906 31.771C155.047 32.0141 155.25 32.2161 155.495 32.3567C155.745 32.5015 156.031 32.5752 156.321 32.5697C156.565 32.5707 156.808 32.5322 157.039 32.4556C157.257 32.3872 157.462 32.2817 157.643 32.1437C157.806 32.0225 157.939 31.8665 158.033 31.6874V33.0337C157.815 33.2343 157.553 33.3826 157.269 33.4672C156.938 33.5761 156.592 33.6301 156.244 33.6269C155.738 33.6369 155.237 33.5164 154.791 33.2771C154.368 33.0595 154.016 32.7272 153.774 32.3187C153.533 31.8857 153.407 31.3989 153.407 30.9039C153.407 30.409 153.533 29.9222 153.774 29.4892C154.022 29.0774 154.383 28.7449 154.814 28.5308C155.263 28.2991 155.762 28.1815 156.267 28.1885C156.614 28.1867 156.96 28.238 157.292 28.3407C157.576 28.4253 157.838 28.5736 158.056 28.7742V30.1205C157.961 29.9396 157.825 29.7833 157.659 29.6641C157.472 29.5289 157.266 29.4236 157.047 29.3523C156.82 29.2757 156.583 29.2371 156.344 29.2382C156.054 29.2364 155.77 29.3098 155.518 29.4512C155.273 29.5944 155.07 29.799 154.929 30.0444C154.782 30.307 154.708 30.6036 154.715 30.9039C154.699 31.2048 154.765 31.5045 154.906 31.771Z" fill="white"/>
<path d="M161.627 28.2873V29.3674H158.637V28.2873H161.627ZM160.755 26.4771V33.5052H159.532V26.4847L160.755 26.4771Z" fill="white"/>
<path d="M165.198 25.5796H170.757V26.8118H168.646V33.5128H167.293V26.8118H165.198V25.5796Z" fill="white"/>
<path d="M172.515 36.0076H171.2L172.569 32.8967L170.458 28.2874H171.873L173.548 32.4175H172.966L174.61 28.2874H175.925L172.515 36.0076Z" fill="white"/>
<path d="M176.621 36.0077V28.2875H177.868V36.0077H176.621ZM181.851 32.3872C181.637 32.7816 181.313 33.1064 180.918 33.3227C180.535 33.5415 180.099 33.6544 179.657 33.6498C179.242 33.6592 178.834 33.5424 178.487 33.3151C178.144 33.0793 177.878 32.7488 177.722 32.3644C177.365 31.4231 177.365 30.3848 177.722 29.4436C177.878 29.0613 178.144 28.7332 178.487 28.5004C178.832 28.2699 179.241 28.1529 179.657 28.1658C180.098 28.1624 180.532 28.2724 180.918 28.4852C181.313 28.7015 181.637 29.0263 181.851 29.4208C182.087 29.8799 182.211 30.3882 182.211 30.904C182.211 31.4197 182.087 31.9281 181.851 32.3872ZM180.712 30.0141C180.577 29.7787 180.379 29.5862 180.138 29.4588C179.901 29.3395 179.64 29.277 179.374 29.2763C179.13 29.2774 178.891 29.3403 178.678 29.4588C178.444 29.591 178.248 29.7826 178.112 30.0141C177.954 30.2834 177.877 30.5923 177.89 30.904C177.877 31.218 177.954 31.5293 178.112 31.8015C178.246 32.0328 178.442 32.2224 178.678 32.3491C178.889 32.4733 179.129 32.539 179.374 32.5393C179.641 32.5395 179.903 32.4741 180.138 32.3491C180.382 32.2262 180.582 32.0325 180.712 31.7939C180.866 31.5228 180.942 31.2152 180.934 30.904C180.94 30.593 180.864 30.2859 180.712 30.0141Z" fill="white"/>
<path d="M184.252 33.2847C183.853 33.0651 183.526 32.7348 183.312 32.3339C183.083 31.8923 182.97 31.4005 182.983 30.904C182.973 30.4044 183.088 29.9102 183.319 29.4664C183.534 29.0651 183.864 28.7367 184.267 28.5232C184.715 28.2892 185.215 28.1739 185.72 28.1886C186.208 28.1713 186.693 28.2787 187.127 28.5004C187.511 28.7074 187.823 29.0258 188.022 29.4132C188.245 29.859 188.352 30.3531 188.335 30.8507V31.0409C188.339 31.089 188.339 31.1373 188.335 31.1854H183.747V30.3487H187.303L186.928 30.8735C186.957 30.8115 186.983 30.7481 187.005 30.6834C187.013 30.6177 187.013 30.5513 187.005 30.4856C187.019 30.2216 186.961 29.9586 186.836 29.725C186.734 29.5263 186.578 29.3602 186.385 29.2458C186.178 29.1302 185.943 29.0724 185.705 29.0785C185.436 29.076 185.171 29.147 184.94 29.2839C184.713 29.4203 184.536 29.6256 184.436 29.8695C184.312 30.1714 184.25 30.4945 184.252 30.8203C184.243 31.1484 184.303 31.4748 184.428 31.7787C184.529 32.0246 184.705 32.2323 184.933 32.372C185.181 32.5154 185.464 32.5865 185.751 32.5773C186.054 32.5842 186.354 32.5135 186.622 32.372C186.887 32.2274 187.104 32.0111 187.249 31.7483L188.312 32.1818C188.064 32.6262 187.696 32.9925 187.249 33.2391C186.776 33.4776 186.251 33.5977 185.72 33.5889C185.212 33.6211 184.705 33.516 184.252 33.2847Z" fill="white"/>
<path d="M192.999 26.1652L196.18 25.4502V33.5127H194.842V26.9258L192.999 27.4354V26.1652Z" fill="white"/>
<path d="M199.797 25.5795V33.5128H198.436V25.5795H199.797ZM199.261 33.5128V32.2577H200.974C201.345 32.2626 201.715 32.2061 202.068 32.0904C202.397 31.987 202.699 31.8108 202.951 31.5751C203.202 31.3393 203.397 31.0501 203.52 30.7289C203.668 30.3535 203.741 29.953 203.734 29.5499C203.739 29.147 203.667 28.7468 203.52 28.371C203.393 28.0494 203.195 27.7607 202.939 27.5267C202.69 27.2945 202.393 27.1204 202.068 27.0171C201.715 26.8988 201.346 26.8397 200.974 26.8422H199.261V25.5795H201.005C201.752 25.5607 202.491 25.7309 203.153 26.0739C203.754 26.388 204.253 26.8654 204.591 27.4506C204.932 28.0955 205.111 28.8134 205.111 29.5423C205.111 30.2712 204.932 30.9892 204.591 31.634C204.253 32.2215 203.755 32.7016 203.153 33.0184C202.489 33.3577 201.751 33.5276 201.005 33.5128H199.261Z" fill="white"/>
</g>
<defs>
<clipPath id="clip0_79_19920">
<rect width="205.277" height="36" fill="white" transform="translate(0.361816)"/>
</clipPath>
</defs>
</svg>
